# 3ds Max Wavefront OBJ Exporter v0.97b - (c)2007 guruware
# File Created: 19.12.2012 11:24:48

#
# object Plane001
#

v  -70.1258 0.0000 34.7413
v  -70.1258 0.0000 69.7985
v  -35.0866 0.0000 34.7413
v  -35.0866 0.0000 69.7985
v  -0.0474 0.0000 34.7413
v  -0.0474 0.0000 69.7985
v  34.9918 0.0000 34.7413
v  34.9918 0.0000 69.7985
v  70.0311 0.0000 34.7413
v  70.0311 0.0000 69.7985
v  -70.1258 0.0000 -0.3158
v  -35.0866 0.0000 -0.3158
v  -0.0474 0.0000 -0.3158
v  34.9918 0.0000 -0.3158
v  70.0311 0.0000 -0.3158
v  -70.1258 0.0000 -35.3729
v  -35.0866 0.0000 -35.3729
v  -0.0474 0.0000 -35.3729
v  34.9918 0.0000 -35.3729
v  70.0311 0.0000 -35.3729
v  -70.1258 0.0000 -70.4300
v  -35.0866 0.0000 -70.4300
v  -0.0474 0.0000 -70.4300
v  34.9918 0.0000 -70.4300
v  70.0311 0.0000 -70.4300
# 25 vertices

vn 0.0000 1.0000 -0.0000
# 1 vertex normals

vt 0.0000 2.5 0.0000
vt 0.0000 0.0000 0.0000
vt 2.5 2.5 0.0000
vt 2.5 0.0000 0.0000
vt 5 2.5 0.0000
vt 5 0.0000 0.0000
vt 7.5 2.5 0.0000
vt 7.5 0.0000 0.0000
vt 1.0000 2.5 0.0000
vt 1.0000 0.0000 0.0000
vt 0.0000 5 0.0000
vt 2.5 5 0.0000
vt 5 5 0.0000
vt 7.5 5 0.0000
vt 1.0000 5 0.0000
vt 0.0000 7.5 0.0000
vt 2.5 7.5 0.0000
vt 5 7.5 0.0000
vt 7.5 7.5 0.0000
vt 1.0000 7.5 0.0000
vt 0.0000 1.0000 0.0000
vt 2.5 1.0000 0.0000
vt 5 1.0000 0.0000
vt 7.5 1.0000 0.0000
vt 1.0000 1.0000 0.0000
# 25 texture coords

g Plane001
f 1/1/1 2/2/1 3/3/1 
f 4/4/1 3/3/1 2/2/1 
f 3/3/1 4/4/1 5/5/1 
f 6/6/1 5/5/1 4/4/1 
f 5/5/1 6/6/1 7/7/1 
f 8/8/1 7/7/1 6/6/1 
f 7/7/1 8/8/1 9/9/1 
f 10/10/1 9/9/1 8/8/1 
f 11/11/1 1/1/1 12/12/1 
f 3/3/1 12/12/1 1/1/1 
f 12/12/1 3/3/1 13/13/1 
f 5/5/1 13/13/1 3/3/1 
f 13/13/1 5/5/1 14/14/1 
f 7/7/1 14/14/1 5/5/1 
f 14/14/1 7/7/1 15/15/1 
f 9/9/1 15/15/1 7/7/1 
f 16/16/1 11/11/1 17/17/1 
f 12/12/1 17/17/1 11/11/1 
f 17/17/1 12/12/1 18/18/1 
f 13/13/1 18/18/1 12/12/1 
f 18/18/1 13/13/1 19/19/1 
f 14/14/1 19/19/1 13/13/1 
f 19/19/1 14/14/1 20/20/1 
f 15/15/1 20/20/1 14/14/1 
f 21/21/1 16/16/1 22/22/1 
f 17/17/1 22/22/1 16/16/1 
f 22/22/1 17/17/1 23/23/1 
f 18/18/1 23/23/1 17/17/1 
f 23/23/1 18/18/1 24/24/1 
f 19/19/1 24/24/1 18/18/1 
f 24/24/1 19/19/1 25/25/1 
f 20/20/1 25/25/1 19/19/1 
# 32 faces

